<?xml version="1.0" standalone="no"?>
<!DOCTYPE svg PUBLIC "-//W3C//DTD SVG 1.1//EN" "http://www.w3.org/Graphics/SVG/1.1/DTD/svg11.dtd" >
<svg xmlns="http://www.w3.org/2000/svg">
<metadata>
<json>
<![CDATA[
{
	"fontFamily": "ZarinPal-35",
	"majorVersion": 3,
	"minorVersion": 1,
	"description": "ZarinPal icons pack\nFont generated by IcoMoon.",
	"copyright": "ZarinPal 2021",
	"designer": "Mohammad Hossein Afzali",
	"designerURL": "",
	"version": "Version 3.1",
	"fontId": "ZarinPal-35",
	"psName": "ZarinPal-35",
	"subFamily": "Regular",
	"fullName": "ZarinPal-35"
}
]]>
</json>
</metadata>
<defs>
<font id="ZarinPal-35" horiz-adv-x="1024">
<font-face units-per-em="1024" ascent="960" descent="-64" />
<missing-glyph horiz-adv-x="1024" />
<glyph unicode="&#x20;" horiz-adv-x="512" d="" />
<glyph unicode="&#xe900;" glyph-name="arrow-right" data-tags="arrow-right" d="M64 512h714.88l-312.32 312.32c-24.96 24.96-24.96 65.92 0 90.88s65.28 24.96 90.24 0l421.76-421.76c24.96-24.96 24.96-65.28 0-90.24l-421.76-421.76c-24.96-24.96-65.28-24.96-90.24 0s-24.96 65.28 0 90.24l312.32 312.32h-714.88c-35.2 0-64 28.8-64 64s28.8 64 64 64z" />
<glyph unicode="&#xe901;" glyph-name="cards" data-tags="Combined Shape" d="M940.232 704.491h-670.161c-46.265 0-83.768-37.278-83.768-83.26v-499.572c0-45.984 37.506-83.26 83.768-83.26h670.161c46.265 0 83.768 37.278 83.768 83.26v499.572c0 45.984-37.506 83.26-83.768 83.26zM940.232 121.654h-670.161v249.78h670.161v-249.78zM940.232 537.968h-670.161v83.26h670.161v-83.26zM123.895 662.859l-0.008-471.68-47.648 0.024c-42.732 3.784-76.238 39.47-76.238 82.931 0 2.596 0.122 5.169 0.331 7.384l41.909 499.875c3.606 42.684 39.599 76.207 83.473 76.207 2.601 0 5.18-0.12 7.395-0.326l667.98-58.308c23.62-2.233 44.378-14.21 58.302-32.031h-630.786c-57.828 0-104.709-46.597-104.709-104.076z" />
<glyph unicode="&#xe902;" glyph-name="logo" data-tags="logo" d="M28.692 960h298.832c25.288 0 38.175-30.438 20.425-48.314l-298.102-299.303c-17.993-18.118-48.873-5.556-48.873 19.809l-0.973 299.303c0 15.702 12.644 28.505 28.692 28.505zM995.763-64h-299.268c-25.304 0-38.199 30.438-20.438 48.314l298.051 299.303c18.005 18.118 48.902 5.556 48.902-19.809l0.976-299.303c0.487-15.702-12.409-28.505-28.224-28.505zM42.615 184.151l733.422 733.242c56.82 56.808 148.778 56.808 205.348 0 56.82-56.806 56.82-148.739 0-205.298l-733.422-733.492c-56.57-56.806-148.778-56.806-205.348 0-56.82 56.808-56.82 148.741 0 205.547z" />
<glyph unicode="&#xe903;" glyph-name="mobile" data-tags="mobile" d="M698.182 960h-372.364c-77.265 0-139.636-62.371-139.636-139.636v-744.727c0-77.265 62.371-139.636 139.636-139.636h372.364c77.265 0 139.636 62.371 139.636 139.636v744.727c0 77.265-62.371 139.636-139.636 139.636zM744.727 168.727h-465.455v651.636h465.455v-651.636zM605.091 29.091h-186.182v46.545h186.182v-46.545z" />
<glyph unicode="&#xe904;" glyph-name="document" data-tags="outline-insert_drive_file-24px" horiz-adv-x="819" d="M512 960h-409.6c-56.32 0-101.888-46.080-101.888-102.4l-0.512-819.2c0-56.32 45.568-102.4 101.888-102.4h614.912c56.32 0 102.4 46.080 102.4 102.4v614.4l-307.2 307.2zM102.4 38.4v819.2h358.4v-256h256v-563.2h-614.4z" />
<glyph unicode="&#xe905;" glyph-name="qr" data-tags="qr" d="M2.56-64h465.92v463.36h-465.92v-463.36zM94.72 307.2h279.040v-279.040h-279.040v279.040zM186.88 215.040h92.16v-92.16h-92.16v92.16zM791.040 30.72h92.16v-92.16h-92.16v92.16zM929.28 30.72h92.16v-92.16h-92.16v92.16zM929.28 307.2h-92.16v92.16h-276.48v-463.36h92.16v279.040h92.16v-92.16h279.040v276.48h-94.72zM2.56 496.64h465.92v463.36h-465.92v-463.36zM94.72 865.28h279.040v-279.040h-279.040v279.040zM186.88 773.12h92.16v-92.16h-92.16v92.16zM560.64 960v-465.92h463.36v465.92h-463.36zM929.28 588.8h-276.48v276.48h279.040v-276.48h-2.56zM744.96 773.12h92.16v-92.16h-92.16v92.16z" />
<glyph unicode="&#xe906;" glyph-name="home" data-tags="round-account_balance-24px" d="M188.632 21.333h646.737c33.549 0 60.632 27.563 60.632 61.709s-27.082 61.709-60.632 61.709h-646.737c-33.549 0-60.632-27.563-60.632-61.709s27.082-61.709 60.632-61.709zM474.408 865.102l-319.326-171.14c-16.573-8.639-27.082-26.329-27.082-45.253 0-28.386 22.636-51.424 50.526-51.424h667.352c27.486 0 50.122 23.038 50.122 51.424 0 18.924-10.509 36.614-27.082 45.253l-319.326 171.14c-23.444 12.753-51.739 12.753-75.183 0zM208.842 453.297v-164.557c0-34.146 27.082-61.709 60.632-61.709s60.632 27.563 60.632 61.709v164.557c0 34.146-27.082 61.709-60.632 61.709s-60.632-27.563-60.632-61.709zM451.368 453.297v-164.557c0-34.146 27.082-61.709 60.632-61.709s60.632 27.563 60.632 61.709v164.557c0 34.146-27.082 61.709-60.632 61.709s-60.632-27.563-60.632-61.709zM693.895 453.297v-164.557c0-34.146 27.082-61.709 60.632-61.709s60.632 27.563 60.632 61.709v164.557c0 34.146-27.082 61.709-60.632 61.709s-60.632-27.563-60.632-61.709z" />
<glyph unicode="&#xe907;" glyph-name="money" data-tags="round-attach_money-24px" d="M655.748 514.064v-308.156l-128.552 124.437c-17.408 16.851-45.975 16.851-63.383 0s-17.408-44.071 0-60.922l204.88-198.321c17.408-16.851 45.529-16.851 62.937 0l204.88 198.321c17.408 16.851 17.408 44.071 0 60.922s-45.529 16.851-62.937 0l-128.552-124.437v308.156c0 23.764-20.086 43.207-44.636 43.207s-44.636-19.443-44.636-43.207zM247.658 419.066v308.156l-128.552-124.437c-17.408-16.851-45.975-16.851-63.383 0s-17.408 44.071 0 60.922l204.88 198.321c17.408 16.851 45.529 16.851 62.937 0l204.88-198.321c17.408-16.851 17.408-44.071 0-60.922s-45.529-16.851-62.937 0l-128.552 124.437v-308.156c0-23.764-20.086-43.207-44.636-43.207s-44.636 19.443-44.636 43.207z" />
<glyph unicode="&#xe908;" glyph-name="knowledge" data-tags="round-import_contacts-24px" d="M746.65 793.617c-83.2 0-172.8-17.067-234.667-64-61.867 46.933-151.467 64-234.667 64-61.867 0-127.573-9.387-182.613-33.707-31.147-14.080-52.053-44.373-52.053-78.933v-481.28c0-55.467 52.053-96.427 105.813-82.773 41.813 10.667 86.187 15.36 128.853 15.36 66.56 0 137.387-11.093 194.56-39.253 25.6-12.8 54.613-12.8 79.787 0 57.173 28.587 128 39.253 194.56 39.253 42.667 0 87.040-4.693 128.853-15.36 53.76-14.080 105.813 26.88 105.813 82.773v481.28c0 34.56-20.907 64.853-52.053 78.933-54.613 24.32-120.32 33.707-182.187 33.707zM895.983 250.47c0-26.88-24.747-46.507-51.2-41.813-32 5.973-65.28 8.533-98.133 8.533-72.533 0-177.067-27.733-234.667-64v491.093c57.6 36.267 162.133 64 234.667 64 39.253 0 78.080-3.84 115.2-11.947 19.627-4.267 34.133-21.76 34.133-41.813v-404.053z" />
<glyph unicode="&#xe909;" glyph-name="drop-down" data-tags="round-keyboard_arrow_down-24px" d="M180.907 679.219l331.093-331.093 331.093 331.093c33.28 33.28 87.040 33.28 120.32 0s33.28-87.040 0-120.32l-391.68-391.68c-33.28-33.28-87.040-33.28-120.32 0l-391.68 391.68c-33.28 33.28-33.28 87.040 0 120.32 33.28 32.427 87.893 33.28 121.173 0z" />
<glyph unicode="&#xe90a;" glyph-name="menu" data-tags="round-menu-24px" d="M56.889 106.667h910.222c31.289 0 56.889 25.6 56.889 56.889s-25.6 56.889-56.889 56.889h-910.222c-31.289 0-56.889-25.6-56.889-56.889s25.6-56.889 56.889-56.889zM56.889 391.111h910.222c31.289 0 56.889 25.6 56.889 56.889s-25.6 56.889-56.889 56.889h-910.222c-31.289 0-56.889-25.6-56.889-56.889s25.6-56.889 56.889-56.889zM0 732.444c0-31.289 25.6-56.889 56.889-56.889h910.222c31.289 0 56.889 25.6 56.889 56.889s-25.6 56.889-56.889 56.889h-910.222c-31.289 0-56.889-25.6-56.889-56.889z" />
<glyph unicode="&#xe90b;" glyph-name="notification" data-tags="round-notifications-24px" d="M511.98-23.863c55.216 0 100.392 45.176 100.392 100.392h-200.784c0-55.216 44.675-100.392 100.392-100.392zM813.156 277.313v250.98c0 154.102-82.322 283.106-225.882 317.239v34.133c0 41.663-33.631 75.294-75.294 75.294s-75.294-33.631-75.294-75.294v-34.133c-144.063-34.133-225.882-162.635-225.882-317.239v-250.98l-64.753-64.753c-31.624-31.624-9.537-85.835 35.137-85.835h661.082c44.675 0 67.263 54.212 35.639 85.835l-64.753 64.753z" />
<glyph unicode="&#xe90c;" glyph-name="search" data-tags="round-search-24px" d="M745.267 300.066h-44.942l-15.929 15.36c68.267 79.644 103.538 188.302 84.196 303.787-26.738 158.151-158.72 284.444-318.009 303.787-240.64 29.582-443.164-172.942-413.582-413.582 19.342-159.289 145.636-291.271 303.787-318.009 115.484-19.342 224.142 15.929 303.787 84.196l15.36-15.929v-44.942l241.778-241.778c23.324-23.324 61.44-23.324 84.764 0s23.324 61.44 0 84.764l-241.209 242.347zM403.934 300.066c-141.653 0-256 114.347-256 256s114.347 256 256 256c141.653 0 256-114.347 256-256s-114.347-256-256-256z" />
<glyph unicode="&#xe90d;" glyph-name="help" data-tags="Shape" d="M606.815 874.667c73.33 0 133.221-57.362 137.264-129.678l0.218-7.803v-94.815c0-23.564-19.103-42.667-42.667-42.667-21.881 0-39.915 16.471-42.38 37.691l-0.287 4.976v94.815c0 27.020-20.502 49.211-46.813 51.879l-5.335 0.269h-426.667c-27.020 0-49.211-20.502-51.879-46.813l-0.269-5.335v-284.444c0-27.020 20.502-49.211 46.813-51.879l5.335-0.269h47.407c21.881 0 39.915-16.471 42.38-37.691l0.287-4.976-0.014-62.459 75.903 50.553c18.206 12.137 42.348 8.436 56.169-7.853l2.999-3.981c12.137-18.206 8.436-42.348-7.853-56.169l-3.981-2.999-142.222-94.815c-27.004-18.003-62.739-0.424-66.081 30.729l-0.253 4.772-0.014 99.56-4.727-0.005c-73.33 0-133.221 57.362-137.264 129.678l-0.218 7.803v284.444c0 73.33 57.362 133.221 129.678 137.264l7.803 0.218h426.667zM843.852 685.037h-379.259c-75.949 0-137.481-61.532-137.481-137.481v-284.444l0.218-7.803c4.043-72.316 63.934-129.678 137.264-129.678l128.005 0.024 178.247-133.713 3.905-2.624c27.788-16.616 64.362 3.196 64.362 36.757l-0.028 99.579 4.769-0.024c75.949 0 137.481 61.532 137.481 137.481v284.444c0 75.949-61.532 137.481-137.481 137.481zM464.593 599.704h379.259c28.821 0 52.148-23.327 52.148-52.148v-284.444c0-28.821-23.327-52.148-52.148-52.148h-47.407l-4.976-0.287c-21.22-2.465-37.691-20.499-37.691-42.38l-0.028-56.851-121.335 90.984c-7.385 5.539-16.368 8.533-25.6 8.533h-142.222c-28.821 0-52.148 23.327-52.148 52.148v284.444c0 28.821 23.327 52.148 52.148 52.148zM498.882 437.181c14.882 14.882 37.588 17.172 54.878 6.869l4.794-3.319 4.020-3.549c17.588-17.588 17.588-46.104 0-63.692s-46.104-17.588-63.692 0c-17.588 17.588-17.588 46.104 0 63.692zM622.378 437.181c17.588 17.588 46.104 17.588 63.692 0s17.588-46.104 0-63.692c-17.588-17.588-46.104-17.588-63.692 0s-17.588 46.104 0 63.692zM745.875 437.181c14.882 14.882 37.588 17.172 54.878 6.869l4.794-3.319 4.020-3.549c17.588-17.588 17.588-46.104 0-63.692s-46.104-17.588-63.692 0c-17.588 17.588-17.588 46.104 0 63.692z" />
<glyph unicode="&#xe90e;" glyph-name="user-outline" data-tags="user" d="M512 960c-282.624 0-512-229.376-512-512s229.376-512 512-512c282.624 0 512 229.376 512 512s-229.376 512-512 512zM259.584 126.464c22.016 46.080 156.16 91.136 252.416 91.136s230.912-45.056 252.416-91.136c-69.632-55.296-157.184-88.064-252.416-88.064s-182.784 32.768-252.416 88.064zM837.632 200.704c-73.216 89.088-250.88 119.296-325.632 119.296s-252.416-30.208-325.632-119.296c-52.224 68.608-83.968 154.112-83.968 247.296 0 225.792 183.808 409.6 409.6 409.6s409.6-183.808 409.6-409.6c0-93.184-31.744-178.688-83.968-247.296zM512 755.2c-99.328 0-179.2-79.872-179.2-179.2s79.872-179.2 179.2-179.2c99.328 0 179.2 79.872 179.2 179.2s-79.872 179.2-179.2 179.2zM512 499.2c-42.496 0-76.8 34.304-76.8 76.8s34.304 76.8 76.8 76.8c42.496 0 76.8-34.304 76.8-76.8s-34.304-76.8-76.8-76.8z" />
<glyph unicode="&#xe90f;" glyph-name="card" data-tags="card" horiz-adv-x="1280" d="M1152 960h-1024c-71.040 0-127.36-56.96-127.36-128l-0.64-768c0-71.040 56.96-128 128-128h1024c71.040 0 128 56.96 128 128v768c0 71.040-56.96 128-128 128zM1152 64h-1024v384h1024v-384zM1152 704h-1024v128h1024v-128z" />
<glyph unicode="&#xe910;" glyph-name="doc" data-tags="doc" d="M614.4 960h-409.6c-56.32 0-101.888-46.080-101.888-102.4l-0.512-819.2c0-56.32 45.568-102.4 101.888-102.4h614.912c56.32 0 102.4 46.080 102.4 102.4v614.4l-307.2 307.2zM204.8 38.4v819.2h358.4v-256h256v-563.2h-614.4z" />
<glyph unicode="&#xe911;" glyph-name="invite" data-tags="invite" horiz-adv-x="1408" d="M896 448c141.44 0 256 114.56 256 256s-114.56 256-256 256c-141.44 0-256-114.56-256-256s114.56-256 256-256zM320 576v128c0 35.2-28.8 64-64 64s-64-28.8-64-64v-128h-128c-35.2 0-64-28.8-64-64s28.8-64 64-64h128v-128c0-35.2 28.8-64 64-64s64 28.8 64 64v128h128c35.2 0 64 28.8 64 64s-28.8 64-64 64h-128zM896 320c-170.88 0-512-85.76-512-256v-64c0-35.2 28.8-64 64-64h896c35.2 0 64 28.8 64 64v64c0 170.24-341.12 256-512 256z" />
<glyph unicode="&#xe912;" glyph-name="link" data-tags="link" d="M725.333 661.333h-128c-23.467 0-42.667-19.2-42.667-42.667s19.2-42.667 42.667-42.667h128c70.4 0 128-57.6 128-128s-57.6-128-128-128h-128c-23.467 0-42.667-19.2-42.667-42.667s19.2-42.667 42.667-42.667h128c117.76 0 213.333 95.573 213.333 213.333s-95.573 213.333-213.333 213.333zM341.333 448c0-23.467 19.2-42.667 42.667-42.667h256c23.467 0 42.667 19.2 42.667 42.667s-19.2 42.667-42.667 42.667h-256c-23.467 0-42.667-19.2-42.667-42.667zM426.667 320h-128c-70.4 0-128 57.6-128 128s57.6 128 128 128h128c23.467 0 42.667 19.2 42.667 42.667s-19.2 42.667-42.667 42.667h-128c-117.76 0-213.333-95.573-213.333-213.333s95.573-213.333 213.333-213.333h128c23.467 0 42.667 19.2 42.667 42.667s-19.2 42.667-42.667 42.667z" />
<glyph unicode="&#xe913;" glyph-name="add" data-tags="round-add-24px" d="M950.857 374.857h-365.714v-365.714c0-40.229-32.914-73.143-73.143-73.143s-73.143 32.914-73.143 73.143v365.714h-365.714c-40.229 0-73.143 32.914-73.143 73.143s32.914 73.143 73.143 73.143h365.714v365.714c0 40.229 32.914 73.143 73.143 73.143s73.143-32.914 73.143-73.143v-365.714h365.714c40.229 0 73.143-32.914 73.143-73.143s-32.914-73.143-73.143-73.143z" />
<glyph unicode="&#xe914;" glyph-name="telegram" data-tags="send" horiz-adv-x="1144" d="M82.347-58.878l1026.391 451.363c47.643 21.12 47.643 89.911 0 111.030l-1026.391 451.363c-38.821 17.499-81.758-12.069-81.758-54.912l-0.588-278.18c0-30.171 21.763-56.119 51.173-59.739l831.112-114.048-831.112-113.444c-29.41-4.224-51.173-30.171-51.173-60.343l0.588-278.18c0-42.843 42.938-72.411 81.758-54.912z" />
<glyph unicode="&#xe915;" glyph-name="copy" data-tags="copy" d="M699.2 917.333h-499.2c-45.76 0-83.2-38.4-83.2-85.333v-597.333h83.2v597.333h499.2v85.333zM657.6 746.666h-291.2c-45.76 0-82.784-38.4-82.784-85.333l-0.416-597.333c0-46.933 37.024-85.333 82.784-85.333h458.016c45.76 0 83.2 38.4 83.2 85.333v426.667l-249.6 256zM366.4 64v597.333h249.6v-213.333h208v-384h-457.6z" />
<glyph unicode="&#xe916;" glyph-name="delete" data-tags="delete" d="M182.858 49.778c0-62.578 49.371-113.778 109.714-113.778h438.857c60.343 0 109.714 51.2 109.714 113.778v568.889c0 62.578-49.371 113.778-109.714 113.778h-438.857c-60.343 0-109.714-51.2-109.714-113.778v-568.889zM347.43 618.667h329.143c30.171 0 54.857-25.6 54.857-56.889v-455.111c0-31.289-24.686-56.889-54.857-56.889h-329.143c-30.171 0-54.857 25.6-54.857 56.889v455.111c0 31.289 24.686 56.889 54.857 56.889zM704.001 903.111l-38.949 40.391c-9.874 10.24-24.137 16.498-38.4 16.498h-229.303c-14.263 0-28.526-6.258-38.4-16.498l-38.949-40.391h-137.143c-30.171 0-54.857-25.6-54.857-56.889s24.686-56.889 54.857-56.889h658.286c30.171 0 54.857 25.6 54.857 56.889s-24.686 56.889-54.857 56.889h-137.143z" />
<glyph unicode="&#xe917;" glyph-name="edit" data-tags="edit" horiz-adv-x="1040" d="M633.331 617.529l52.682-52.338-518.804-515.413h-52.682v52.338l518.804 515.413zM839.478 960c-14.316 0-29.204-5.689-40.084-16.498l-104.792-104.107 214.737-213.333 104.792 104.107c22.333 22.187 22.333 58.027 0 80.213l-133.996 133.12c-11.453 11.378-25.768 16.498-40.657 16.498zM633.331 778.524l-633.331-629.191v-213.333h214.737l633.331 629.191-214.737 213.333z" />
<glyph unicode="&#xe918;" glyph-name="code" data-tags="view code" horiz-adv-x="1216" d="M331.192 754.933c-23.806 18.272-58.674 15.647-78.062-6.789l-234.728-266.736c-17.171-19.316-17.171-47.504 0-66.817l234.728-266.736c19.376-22.443 54.256-25.058 78.062-6.789s26.582 51.152 7.202 73.596l-205.39 233.332 205.39 233.332c19.376 22.443 16.604 55.324-7.202 73.596zM331.192 395.806h110.721v104.398h-110.721v-104.398zM884.805 500.204h-110.721v-104.398h110.721v104.398zM552.636 395.806h110.721v104.398h-110.721v-104.398zM884.805 754.933c-23.806-18.272-26.582-51.152-7.202-73.596l205.39-233.332-205.39-233.332c-19.376-22.443-16.046-55.324 7.202-73.596 23.806-18.272 58.674-15.647 78.062 6.789l234.728 266.736c17.171 19.316 17.171 47.504 0 66.817l-234.728 266.736c-19.376 21.92-54.806 25.058-78.062 6.789z" />
<glyph unicode="&#xe919;" glyph-name="view" data-tags="view" horiz-adv-x="1248" d="M623.995 747.197c214.21 0 405.244-115.872 498.505-299.197-93.259-183.325-283.73-299.197-498.505-299.197s-405.244 115.872-498.505 299.197c93.259 183.325 284.305 299.197 498.505 299.197zM623.995 856c-282.599 0-523.938-169.187-621.71-408 97.781-238.813 339.13-408 621.71-408s523.938 169.187 621.721 408c-97.781 238.813-339.13 408-621.721 408zM623.995 583.997c78.010 0 141.301-60.925 141.301-135.997s-63.304-135.997-141.301-135.997c-78.010 0-141.301 60.925-141.301 135.997s63.304 135.997 141.301 135.997zM623.995 692.8c-140.168 0-254.338-109.885-254.338-244.8s114.169-244.8 254.338-244.8c140.168 0 254.338 109.885 254.338 244.8s-114.169 244.8-254.338 244.8z" />
<glyph unicode="&#xe91a;" glyph-name="close" data-tags="round-close-24px" d="M903.12 838.501v0c-24.208 24.208-63.328 24.208-87.536 0l-303.584-302.965-303.584 303.584c-24.208 24.208-63.328 24.208-87.536 0v0c-24.208-24.208-24.208-63.328 0-87.536l303.584-303.584-303.584-303.584c-24.208-24.208-24.208-63.328 0-87.536v0c24.208-24.208 63.328-24.208 87.536 0l303.584 303.584 303.584-303.584c24.208-24.208 63.328-24.208 87.536 0v0c24.208 24.208 24.208 63.328 0 87.536l-303.584 303.584 303.584 303.584c23.589 23.589 23.589 63.328 0 86.917z" />
<glyph unicode="&#xe91b;" glyph-name="excel" data-tags="excel" horiz-adv-x="1170" d="M585.143 960l-585.143-113.778v-796.444l585.143-113.778v1024zM702.171 846.222v-113.778h117.029v-113.778h-117.029v-113.778h117.029v-113.778h-117.029v-113.778h117.029v-113.778h-117.029v-113.778h409.6c32.3 0 58.514 25.486 58.514 56.889v682.667c0 31.403-26.214 56.889-58.514 56.889h-409.6zM936.229 732.444h117.029v-113.778h-117.029v113.778zM127.314 658.667h104l54.057-126c4.389-10.297 7.692-22.238 11.086-35.778h1.486c1.931 8.135 5.861 20.564 11.771 36.778l60.229 125h94.857l-113.257-208.778 116.571-212.556h-101.143l-65.143 137.333c-2.458 4.836-5.372 14.572-7.771 28.111h-0.914c-1.463-6.485-4.411-16.195-8.8-29.222l-65.714-136.222h-101.6l120.571 210.889-110.286 210.444zM936.229 504.889h117.029v-113.778h-117.029v113.778zM936.229 277.333h117.029v-113.778h-117.029v113.778z" />
<glyph unicode="&#xe91c;" glyph-name="attach" data-tags="ic_attach_file_black_24px" horiz-adv-x="878" d="M823.819 476.767l-396.519-396.519c-76.201-76.201-199.638-76.201-275.839 0s-76.201 199.638 0 275.839l430.998 430.998c47.582 47.582 124.817 47.582 172.399 0s47.582-124.817 0-172.399l-362.039-362.039c-18.964-18.964-49.996-18.964-68.96 0s-18.964 49.996 0 68.96l327.559 327.559-51.72 51.72-327.559-327.559c-47.582-47.582-47.582-124.817 0-172.399s124.817-47.582 172.399 0l362.039 362.039c76.201 76.201 76.201 199.638 0 275.839s-199.638 76.201-275.839 0l-430.998-430.998c-104.819-104.819-104.819-274.46 0-379.279s274.46-104.819 379.279 0l396.519 396.519-51.72 51.72z" />
<glyph unicode="&#xe91d;" glyph-name="mail" data-tags="round-mail-24px" horiz-adv-x="1317" d="M1145.929 935.643h-975.238c-67.048 0-121.905-54.857-121.905-121.905v-731.429c0-67.048 54.857-121.905 121.905-121.905h975.238c67.048 0 121.905 54.857 121.905 121.905v731.429c0 67.048-54.857 121.905-121.905 121.905zM1121.548 676.596l-398.629-249.295c-39.619-24.99-89.6-24.99-129.219 0l-398.629 249.295c-15.238 9.752-24.381 26.21-24.381 43.886 0 40.838 44.495 65.219 79.238 43.886l408.381-255.39 408.381 255.39c34.743 21.333 79.238-3.048 79.238-43.886 0-17.676-9.143-34.133-24.381-43.886z" />
<glyph unicode="&#xe91e;" glyph-name="mail-open" data-tags="round-mail-open-24px" horiz-adv-x="1092" d="M1057.621 577.741c0 37.48-18.944 70.276-48.128 88.496l-411.648 245.185c-31.744 19.261-71.68 19.261-103.424 0l-411.648-245.185c-29.184-18.22-48.64-51.015-48.64-88.496v-520.562c0-57.262 46.080-104.112 102.4-104.112h819.2c56.32 0 102.4 46.851 102.4 104.112l-0.512 520.562zM491.861 351.817l-368.64 234.253 371.2 221.239c31.744 19.261 71.68 19.261 103.424 0l371.2-221.239-368.64-234.253c-33.28-20.822-75.264-20.822-108.544 0z" />
<glyph unicode="&#xe91f;" glyph-name="today" data-tags="round-today-24px" d="M843.849 827.26h-47.407v47.407c0 26.074-21.333 47.407-47.407 47.407s-47.407-21.333-47.407-47.407v-47.407h-379.259v47.407c0 26.074-21.333 47.407-47.407 47.407s-47.407-21.333-47.407-47.407v-47.407h-47.407c-52.622 0-94.341-42.667-94.341-94.815l-0.474-663.704c0-52.148 42.193-94.815 94.815-94.815h663.704c52.148 0 94.815 42.667 94.815 94.815v663.704c0 52.148-42.667 94.815-94.815 94.815zM796.442 68.741h-568.889c-26.074 0-47.407 21.333-47.407 47.407v474.074h663.704v-474.074c0-26.074-21.333-47.407-47.407-47.407zM322.367 495.408h142.222c26.074 0 47.407-21.333 47.407-47.407v-142.222c0-26.074-21.333-47.407-47.407-47.407h-142.222c-26.074 0-47.407 21.333-47.407 47.407v142.222c0 26.074 21.333 47.407 47.407 47.407z" />
<glyph unicode="&#xe920;" glyph-name="track" data-tags="outline-track_changes-24px" d="M847.189 783.151l-66.844-66.844c68.267-68.741 110.933-163.556 110.933-268.326 0-209.541-169.719-379.259-379.259-379.259s-379.259 169.719-379.259 379.259c0 193.422 144.593 352.711 331.852 375.941v-95.763c-134.637-22.756-237.037-139.378-237.037-280.178 0-156.919 127.526-284.444 284.444-284.444s284.444 127.526 284.444 284.444c0 78.696-31.763 149.807-83.437 201.007l-66.844-66.844c34.133-34.607 55.467-82.015 55.467-134.163 0-104.77-84.859-189.63-189.63-189.63s-189.63 84.859-189.63 189.63c0 88.178 60.681 161.659 142.222 182.993v-101.452c-28.444-16.593-47.407-46.459-47.407-81.541 0-52.148 42.667-94.815 94.815-94.815s94.815 42.667 94.815 94.815c0 35.081-18.963 65.422-47.407 81.541v392.533h-47.407c-261.689 0-474.074-212.385-474.074-474.074s212.385-474.074 474.074-474.074c261.689 0 474.074 212.385 474.074 474.074 0 130.844-53.096 249.363-138.904 335.17z" />
<glyph unicode="&#xe921;" glyph-name="outline-receipt" data-tags="outline-receipt-24px" d="M514.77 746.664l5.418-0.292c24.912-2.698 44.294-23.785 44.294-49.373v0-23.273l8.822-2.427c59.556-18.099 91.507-63.819 96.769-114.715 0.48-2.117 0.712-4.308 0.712-6.55l-0.133-1.77 0.096-1.284-0.181 0.004-0.067-1.232c-2.258-16.828-17.65-29.837-36.254-29.837-19.038 0-34.671 13.623-36.344 31.021l-0.139 0.044-0.387 5.883c-3.529 38.58-26.295 64.122-82.373 64.122v0l-8.217-0.187c-50.97-2.358-81.384-26.787-81.384-60.835v0l0.14-4.004c2.073-28.949 27.484-48.872 99.655-67.305v0l7.528-2.004c72.886-19.82 148.277-53.118 148.682-143.872v0l-0.314-8.419c-4.395-63.293-54.007-97.942-116.145-109.762v0-21.318l-0.293-5.445c-2.715-25.036-23.932-44.499-49.651-44.499v0l-5.437 0.293c-25.004 2.71-44.507 23.89-44.507 49.651v0 22.621l-7.939 1.792c-60.414 14.849-110 55.365-114.059 124.907v0c0.021 0.761-0.005 1.534-0.005 2.313 0 19.689 16.431 35.701 36.725 35.701 20.248 0 36.725-16.012 36.725-35.701l-0.191-2.287 0.103-0.027 0.636-5.068c5.641-36.788 33.054-64.937 98.368-64.937v0l8.832 0.188c65.508 2.848 80.769 37.48 80.769 59.159v0l-0.083 3.675c-1.353 29.341-19.863 57.249-99.759 76.106v0l-9.807 2.437c-87.234 22.513-146.356 60.892-146.356 134.502v0l0.266 7.935c4.058 59.924 54.038 98.899 115.774 111.969v0 22.435c0 27.416 22.296 49.665 49.711 49.665v0zM512.026-21.333c259.077 0 469.308 210.322 469.308 469.385s-210.231 469.282-469.308 469.282c-259.128 0-469.359-210.22-469.359-469.282s210.231-469.385 469.359-469.385zM136.518 448.051c0 206.943 168.502 375.436 375.508 375.436v0c206.954 0 375.456-168.493 375.456-375.436v0c0-206.994-168.502-375.436-375.456-375.436v0c-207.005 0-375.508 168.442-375.508 375.436v0z" />
<glyph unicode="&#xe922;" glyph-name="email" data-tags="round-alternate_email-24px" d="M546.56 926.56c-292.32 20.64-533.76-220.8-513.12-513.12 17.28-253.92 239.040-445.44 493.44-445.44h177.12c26.4 0 48 21.6 48 48s-21.6 48-48 48h-176.16c-179.040 0-343.2 116.16-387.84 289.44-71.52 278.4 187.68 538.080 466.080 466.080 173.76-44.16 289.92-208.32 289.92-387.36v-52.8c0-37.92-34.080-75.36-72-75.36s-72 37.44-72 75.36v60c0 120.48-85.44 228.96-204.48 245.76-163.2 23.52-300.96-117.6-271.68-281.76 16.32-91.68 87.84-167.52 178.56-189.12 88.32-20.64 172.32 7.68 227.52 63.84 42.72-58.56 128.16-89.28 206.4-58.080 64.32 25.44 103.68 91.2 103.68 160.32 0 15.84 0 33.6 0 52.32 0 254.88-191.52 476.64-445.44 493.92zM512 304c-79.68 0-144 64.32-144 144s64.32 144 144 144c79.68 0 144-64.32 144-144s-64.32-144-144-144z" />
<glyph unicode="&#xe923;" glyph-name="arrow-down" data-tags="round-arrow_downward-24px" d="M448 896v-714.88l-312.32 312.32c-24.96 24.96-65.92 24.96-90.88 0s-24.96-65.28 0-90.24l421.76-421.76c24.96-24.96 65.28-24.96 90.24 0l421.76 421.76c24.96 24.96 24.96 65.28 0 90.24s-65.28 24.96-90.24 0l-312.32-312.32v714.88c0 35.2-28.8 64-64 64s-64-28.8-64-64z" />
<glyph unicode="&#xe924;" glyph-name="print" data-tags="round-print-24px" horiz-adv-x="1170" d="M994.743 675.556h-819.2c-97.134 0-175.543-76.231-175.543-170.667v-227.556c0-62.578 52.663-113.778 117.029-113.778h117.029v-113.778c0-62.578 52.663-113.778 117.029-113.778h468.114c64.366 0 117.029 51.2 117.029 113.778v113.778h117.029c64.366 0 117.029 51.2 117.029 113.778v227.556c0 94.436-78.409 170.667-175.543 170.667zM760.686 49.778h-351.086c-32.183 0-58.514 25.6-58.514 56.889v227.556h468.114v-227.556c0-31.289-26.331-56.889-58.514-56.889zM994.743 448c-32.183 0-58.514 25.6-58.514 56.889s26.331 56.889 58.514 56.889c32.183 0 58.514-25.6 58.514-56.889s-26.331-56.889-58.514-56.889zM877.714 960h-585.143c-32.183 0-58.514-25.6-58.514-56.889v-113.778c0-31.289 26.331-56.889 58.514-56.889h585.143c32.183 0 58.514 25.6 58.514 56.889v113.778c0 31.289-26.331 56.889-58.514 56.889z" />
<glyph unicode="&#xe925;" glyph-name="cards2" data-tags="cards" d="M798.637 789.333h-573.274c-30.222 0-51.158-4.043-73.112-15.784-21.824-11.672-39.462-29.309-51.133-51.133-11.741-21.954-15.784-42.89-15.784-73.112v-402.608c0-30.222 4.043-51.158 15.784-73.112 11.672-21.824 29.309-39.462 51.133-51.133 21.954-11.741 42.89-15.784 73.112-15.784h573.274c30.222 0 51.158 4.043 73.112 15.784 21.824 11.672 39.462 29.309 51.133 51.133 11.741 21.954 15.784 42.89 15.784 73.112v402.608c0 30.222-4.043 51.158-15.784 73.112-11.672 21.824-29.309 39.462-51.133 51.133-21.954 11.741-42.89 15.784-73.112 15.784zM798.637 704c19.019 0 25.916-1.98 32.869-5.699s12.41-9.175 16.128-16.128c3.719-6.953 5.699-13.85 5.699-32.869v-402.608c0-19.019-1.98-25.916-5.699-32.869s-9.175-12.41-16.128-16.128c-6.953-3.719-13.85-5.699-32.869-5.699h-573.274c-19.019 0-25.916 1.98-32.869 5.699s-12.41 9.175-16.128 16.128c-3.719 6.953-5.699 13.85-5.699 32.869v402.608c0 19.019 1.98 25.916 5.699 32.869s9.175 12.41 16.128 16.128c6.953 3.719 13.85 5.699 32.869 5.699h573.274zM938.667 618.667v-85.333h-832v85.333zM405.333 448c23.564 0 42.667-19.103 42.667-42.667 0-21.881-16.471-39.915-37.691-42.38l-4.976-0.287h-128c-23.564 0-42.667 19.103-42.667 42.667 0 21.881 16.471 39.915 37.691 42.38l4.976 0.287h128z" />
<glyph unicode="&#xe926;" glyph-name="coupon" data-tags="coupon" horiz-adv-x="1260" d="M1260.308 669.44v162.56c0 70.4-56.714 128-126.031 128h-1008.246c-69.317 0-125.401-56.96-125.401-128v-162.56c0-44.16 20.795-87.68 59.234-108.16 39.7-22.4 66.166-64.64 66.166-113.28s-27.097-91.52-66.796-112.64c-37.809-21.12-59.234-64.64-59.234-108.8v-162.56c0-70.4 56.714-128 126.031-128h1008.246c69.317 0 126.031 57.6 126.031 128v162.56c0 44.16-21.425 87.68-59.234 108.8-39.7 21.76-66.796 64-66.796 112.64s27.097 90.88 66.796 112.64c37.809 21.12 59.234 64.64 59.234 108.8zM693.169 96h-126.031v128h126.031v-128zM693.169 384h-126.031v128h126.031v-128zM693.169 672h-126.031v128h126.031v-128z" />
<glyph unicode="&#xe927;" glyph-name="zarinlink" data-tags="zarinlink" horiz-adv-x="1408" d="M845.389 824h-740.418c-51.114 0-92.563-42.090-92.563-94.005v-563.991c0-51.913 41.438-94.005 92.563-94.005h740.418c51.114 0 92.563 42.090 92.563 94.005v563.989c0 51.913-41.438 94.005-92.563 94.005v0.002zM845.389 166.009h-740.418v281.994h740.418v-281.994zM845.389 635.995h-740.418v94.005h740.418v-94.005zM1111.482 766.158h115.692c31.943 0 57.842-25.899 57.842-57.842s-25.899-57.842-57.842-57.842h-115.692c-31.943 0-57.842 25.899-57.842 57.842s25.899 57.842 57.842 57.842zM1227.182 534.772h115.692c31.943 0 57.842-25.899 57.842-57.842s-25.899-57.842-57.842-57.842h-115.692c-31.943 0-57.842 25.899-57.842 57.842s25.899 57.842 57.842 57.842zM1111.482 303.386h115.692c31.943 0 57.842-25.899 57.842-57.842s-25.899-57.842-57.842-57.842h-115.692c-31.943 0-57.842 25.899-57.842 57.842s25.899 57.842 57.842 57.842z" />
<glyph unicode="&#xe928;" glyph-name="power" data-tags="power" horiz-adv-x="1088" d="M515.574 960c-31.495 0-57.263-25.6-57.263-56.889v-455.111c0-31.289 25.768-56.889 57.263-56.889s57.263 25.6 57.263 56.889v455.111c0 31.289-25.768 56.889-57.263 56.889zM809.907 797.298c-22.333-22.187-21.76-56.889-0.573-79.076 64.707-68.267 104.792-159.289 107.082-259.982 5.154-217.884-176.371-405.618-395.688-407.893-223.899-3.413-405.996 175.787-405.996 397.653 0 104.676 40.657 199.68 107.082 270.791 21.187 22.187 21.187 56.889-0.573 78.507-22.905 22.756-60.126 22.187-81.886-1.138-83.032-87.609-135.141-204.231-139.149-333.369-8.017-277.618 219.318-517.689 498.762-526.222 292.042-9.102 531.975 223.573 531.975 512 0 134.827-52.682 256.569-138.577 347.591-21.76 23.324-59.554 23.893-82.459 1.138z" />
<glyph unicode="&#xe929;" glyph-name="session" data-tags="session" horiz-adv-x="1205" d="M657.112 960c-272.154 0-492.834-217.196-492.834-485.053h-164.278l213.014-209.651 3.833-7.545 221.228 217.196h-164.278c0 208.573 171.397 377.263 383.316 377.263s383.316-168.691 383.316-377.263c0-208.573-171.397-377.263-383.316-377.263-105.686 0-201.514 42.577-270.511 111.023l-77.758-76.531c89.258-87.848 211.919-142.282 348.27-142.282 272.154 0 492.834 217.196 492.834 485.053s-220.68 485.053-492.834 485.053zM602.353 690.507v-269.432l232.749-135.831 42.165 68.969-192.753 112.64v223.654z" />
<glyph unicode="&#xe92a;" glyph-name="setting" data-tags="setting" d="M878.558 397.824c2.048 16.384 3.584 32.768 3.584 50.176s-1.536 33.792-3.584 50.176l108.032 84.48c9.728 7.68 12.288 21.504 6.144 32.768l-102.4 177.152c-6.144 11.264-19.968 15.36-31.232 11.264l-127.488-51.2c-26.624 20.48-55.296 37.376-86.528 50.176l-19.456 135.68c-1.536 12.288-12.288 21.504-25.088 21.504h-204.8c-12.8 0-23.552-9.216-25.088-21.504l-19.456-135.68c-31.232-12.8-59.904-30.208-86.528-50.176l-127.488 51.2c-11.776 4.608-25.088 0-31.232-11.264l-102.4-177.152c-6.656-11.264-3.584-25.088 6.144-32.768l108.032-84.48c-2.048-16.384-3.584-33.28-3.584-50.176s1.536-33.792 3.584-50.176l-108.032-84.48c-9.728-7.68-12.288-21.504-6.144-32.768l102.4-177.152c6.144-11.264 19.968-15.36 31.232-11.264l127.488 51.2c26.624-20.48 55.296-37.376 86.528-50.176l19.456-135.68c1.536-12.288 12.288-21.504 25.088-21.504h204.8c12.8 0 23.552 9.216 25.088 21.504l19.456 135.68c31.232 12.8 59.904 30.208 86.528 50.176l127.488-51.2c11.776-4.608 25.088 0 31.232 11.264l102.4 177.152c6.144 11.264 3.584 25.088-6.144 32.768l-108.032 84.48zM498.142 268.8c-98.816 0-179.2 80.384-179.2 179.2s80.384 179.2 179.2 179.2c98.816 0 179.2-80.384 179.2-179.2s-80.384-179.2-179.2-179.2z" />
<glyph unicode="&#xe92b;" glyph-name="up" data-tags="round-arrow_upward-24px" d="M554.667 149.333v476.587l208.213-208.213c16.64-16.64 43.947-16.64 60.587 0v0c16.64 16.64 16.64 43.52 0 60.16l-281.173 281.173c-16.64 16.64-43.52 16.64-60.16 0l-281.6-280.747c-16.64-16.64-16.64-43.52 0-60.16v0c16.64-16.64 43.52-16.64 60.16 0l208.64 207.787v-476.587c0-23.467 19.2-42.667 42.667-42.667v0c23.467 0 42.667 19.2 42.667 42.667z" />
<glyph unicode="&#xe92c;" glyph-name="down" data-tags="round-arrow_downward-24px (1)" d="M469.333 746.667v-476.587l-208.213 208.213c-16.64 16.64-43.947 16.64-60.587 0v0c-16.64-16.64-16.64-43.52 0-60.16l281.173-281.173c16.64-16.64 43.52-16.64 60.16 0l281.173 281.173c16.64 16.64 16.64 43.52 0 60.16v0c-16.64 16.64-43.52 16.64-60.16 0l-208.213-208.213v476.587c0 23.467-19.2 42.667-42.667 42.667v0c-23.467 0-42.667-19.2-42.667-42.667z" />
<glyph unicode="&#xe92d;" glyph-name="sync" data-tags="round-sync-24px" horiz-adv-x="740" d="M369.778 820.364v83.316c0 20.945-24.96 31.185-39.289 16.291l-129.422-129.862c-9.244-9.309-9.244-23.738 0-33.047l128.96-129.862c14.791-14.429 39.751-4.189 39.751 16.756v83.316c152.996 0 277.333-125.207 277.333-279.273 0-36.771-6.933-72.611-20.338-104.727-6.933-16.756-1.849-35.84 10.631-48.407 23.573-23.738 63.324-15.36 75.804 15.825 17.102 42.356 26.347 88.902 26.347 137.309 0 205.731-165.476 372.364-369.778 372.364zM369.778 168.727c-152.996 0-277.333 125.207-277.333 279.273 0 36.771 6.933 72.611 20.338 104.727 6.933 16.756 1.849 35.84-10.631 48.407-23.573 23.738-63.324 15.36-75.804-15.825-17.102-42.356-26.347-88.902-26.347-137.309 0-205.731 165.476-372.364 369.778-372.364v-83.316c0-20.945 24.96-31.185 39.289-16.291l128.96 129.862c9.244 9.309 9.244 23.738 0 33.047l-128.96 129.862c-14.329 14.429-39.289 4.189-39.289-16.756v-83.316z" />
<glyph unicode="&#xe92e;" glyph-name="shetabi" data-tags="shetabi" d="M261.973 453.973l-118.613-119.040c-8.107-8.533-8.107-21.76 0-30.293l118.613-119.040c13.227-13.653 36.267-3.84 36.267 14.933v76.8h256.427c23.467 0 42.667 19.2 42.667 42.667v0c0 23.467-19.2 42.667-42.667 42.667h-256.427v76.373c0 19.2-23.040 28.587-36.267 14.933zM881.067 590.933l-118.613 119.040c-13.227 13.653-36.267 3.84-36.267-14.933v-76.373h-256.853c-23.467 0-42.667-19.2-42.667-42.667v0c0-23.467 19.2-42.667 42.667-42.667h256.427v-76.373c0-19.2 23.040-28.587 36.267-14.933l118.613 119.040c8.533 8.107 8.533 21.76 0.427 29.867z" />
<glyph unicode="&#xe92f;" glyph-name="pending" data-tags="round-more_horiz-24px (2)" d="M256 533.333c-46.933 0-85.333-38.4-85.333-85.333s38.4-85.333 85.333-85.333 85.333 38.4 85.333 85.333-38.4 85.333-85.333 85.333zM768 533.333c-46.933 0-85.333-38.4-85.333-85.333s38.4-85.333 85.333-85.333 85.333 38.4 85.333 85.333-38.4 85.333-85.333 85.333zM512 533.333c-46.933 0-85.333-38.4-85.333-85.333s38.4-85.333 85.333-85.333 85.333 38.4 85.333 85.333-38.4 85.333-85.333 85.333z" />
<glyph unicode="&#xe930;" glyph-name="check" data-tags="round-check_circle-24px (1)" d="M512 874.667c-235.52 0-426.667-191.147-426.667-426.667s191.147-426.667 426.667-426.667 426.667 191.147 426.667 426.667-191.147 426.667-426.667 426.667zM396.373 264.96l-153.173 153.173c-16.64 16.64-16.64 43.52 0 60.16v0c16.64 16.64 43.52 16.64 60.16 0l123.307-122.88 293.547 293.547c16.64 16.64 43.52 16.64 60.16 0v0c16.64-16.64 16.64-43.52 0-60.16l-323.84-323.84c-16.213-16.64-43.52-16.64-60.16 0z" />
<glyph unicode="&#xe931;" glyph-name="double-arrow" data-tags="round-unfold_more-24px" d="M512 711.253l104.96-104.96c16.64-16.64 43.52-16.64 60.16 0v0c16.64 16.64 16.64 43.52 0 60.16l-135.253 135.68c-16.64 16.64-43.52 16.64-60.16 0l-135.253-135.68c-16.64-16.64-16.64-43.52 0-60.16v0c16.64-16.64 43.52-16.64 60.16 0l105.387 104.96zM512 184.747l-104.96 104.96c-16.64 16.64-43.52 16.64-60.16 0v0c-16.64-16.64-16.64-43.52 0-60.16l135.253-135.68c16.64-16.64 43.52-16.64 60.16 0l135.253 135.253c16.64 16.64 16.64 43.52 0 60.16v0c-16.64 16.64-43.52 16.64-60.16 0l-105.387-104.533z" />
<glyph unicode="&#xe932;" glyph-name="current" data-tags="Group 8" d="M1024 448c0-282.77-229.23-512-512-512s-512 229.23-512 512c0 282.77 229.23 512 512 512s512-229.23 512-512zM910.222 448c0 219.932-178.29 398.222-398.222 398.222s-398.222-178.29-398.222-398.222c0-219.932 178.29-398.222 398.222-398.222s398.222 178.29 398.222 398.222zM512 618.667c94.257 0 170.667-76.41 170.667-170.667s-76.41-170.667-170.667-170.667c-94.257 0-170.667 76.41-170.667 170.667s76.41 170.667 170.667 170.667z" />
<glyph unicode="&#xe933;" glyph-name="done" data-tags="Group 10" d="M512-64c-282.77 0-512 229.23-512 512s229.23 512 512 512c282.77 0 512-229.23 512-512s-229.23-512-512-512zM512 49.778c219.932 0 398.222 178.29 398.222 398.222s-178.29 398.222-398.222 398.222c-219.932 0-398.222-178.29-398.222-398.222s178.29-398.222 398.222-398.222zM753.591 630.956c24.549-25.895 24.549-67.118-0.062-93.079l-260.094-272.834c-25.479-26.876-67.468-26.876-91.943-1.014l-131.082 126.669c-24.549 25.895-24.549 67.118 0 93.013 25.479 26.876 67.468 26.876 91.708 1.238l83.514-79.074 214.726 225.122c25.483 26.835 67.767 26.821 93.233-0.042z" />
<glyph unicode="&#xe934;" glyph-name="upload" data-tags="outline-cloud_upload-24px" d="M806 526.4c-27.2 138-148.4 241.6-294 241.6-115.6 0-216-65.6-266-161.6-120.4-12.8-214-114.8-214-238.4 0-132.4 107.6-240 240-240h520c110.4 0 200 89.6 200 200 0 105.6-82 191.2-186 198.4zM792 208h-520c-88.4 0-160 71.6-160 160 0 82 61.2 150.4 142.4 158.8l42.8 4.4 20 38c38 73.2 112.4 118.8 194.8 118.8 104.8 0 195.2-74.4 215.6-177.2l12-60 61.2-4.4c62.4-4 111.2-56.4 111.2-118.4 0-66-54-120-120-120zM400.287 408h53.713v-100c0-11.049 8.951-20 20-20h76c11.049 0 20 8.951 20 20v100h53.713c11.049 0 20 8.951 20 20 0 5.3-2.1 10.386-5.86 14.14l-111.713 111.713c-7.817 7.817-20.47 7.817-28.287 0l-111.713-111.713c-7.817-7.817-7.817-20.47 0-28.287 3.745-3.745 8.836-5.86 14.14-5.86z" />
<glyph unicode="&#xe935;" glyph-name="info" data-tags="round-info-24px" d="M512 874.667c-235.52 0-426.667-191.147-426.667-426.667s191.147-426.667 426.667-426.667 426.667 191.147 426.667 426.667-191.147 426.667-426.667 426.667zM512 234.667c-23.467 0-42.667 19.2-42.667 42.667v170.667c0 23.467 19.2 42.667 42.667 42.667s42.667-19.2 42.667-42.667v-170.667c0-23.467-19.2-42.667-42.667-42.667zM554.667 576h-85.333v85.333h85.333v-85.333z" />
<glyph unicode="&#xe936;" glyph-name="error" data-tags="round-error_outline-24px" d="M512 661.333c23.467 0 42.667-19.2 42.667-42.667v-170.667c0-23.467-19.2-42.667-42.667-42.667s-42.667 19.2-42.667 42.667v170.667c0 23.467 19.2 42.667 42.667 42.667zM511.573 874.667c-235.52 0-426.24-191.147-426.24-426.667s190.72-426.667 426.24-426.667c235.947 0 427.093 191.147 427.093 426.667s-191.147 426.667-427.093 426.667zM512 106.667c-188.587 0-341.333 152.747-341.333 341.333s152.747 341.333 341.333 341.333 341.333-152.747 341.333-341.333-152.747-341.333-341.333-341.333zM554.667 234.667h-85.333v85.333h85.333v-85.333z" />
<glyph unicode="&#xe937;" glyph-name="terminal" data-tags="terminal" d="M903.937 839.987h-783.887c-54.119 0-98-43.878-98-98v-56.716c0-54.119 43.878-98 98-98h39.298v-436.808c0-52.159 42.393-94.45 94.689-94.45h516.031c52.29 0 94.689 42.289 94.689 94.45v436.808h39.125c54.077 0 97.936 43.811 98 97.887l0.068 56.716c0.064 54.119-43.77 98.049-97.887 98.113-0.033 0-0.073 0-0.113 0zM93.066 658.158v110.99h66.279v-110.99h-66.279zM249.301 140.999v628.136h99.421v-628.136h-99.421zM514.417 140.999v628.136h265.109v-628.136h-265.109zM864.753 769.148h66.277v-110.99h-66.277v110.99z" />
<glyph unicode="&#xe938;" glyph-name="warning" data-tags="round-warning-24px 2 2" d="M190.72 64h642.56c65.707 0 106.667 71.253 73.813 128l-321.28 555.093c-32.853 56.747-114.773 56.747-147.627 0l-321.28-555.093c-32.853-56.747 8.107-128 73.813-128zM512 362.667v0c-23.467 0-42.667 19.2-42.667 42.667v85.333c0 23.467 19.2 42.667 42.667 42.667v0c23.467 0 42.667-19.2 42.667-42.667v-85.333c0-23.467-19.2-42.667-42.667-42.667zM554.667 192h-85.333v85.333h85.333v-85.333z" />
<glyph unicode="&#xe939;" glyph-name="round-link-24px" data-tags="round-link-24px" d="M725.333 661.333h-128c-23.467 0-42.667-19.2-42.667-42.667s19.2-42.667 42.667-42.667h128c70.4 0 128-57.6 128-128s-57.6-128-128-128h-128c-23.467 0-42.667-19.2-42.667-42.667s19.2-42.667 42.667-42.667h128c117.76 0 213.333 95.573 213.333 213.333s-95.573 213.333-213.333 213.333zM341.333 448c0-23.467 19.2-42.667 42.667-42.667h256c23.467 0 42.667 19.2 42.667 42.667s-19.2 42.667-42.667 42.667h-256c-23.467 0-42.667-19.2-42.667-42.667zM426.667 320h-128c-70.4 0-128 57.6-128 128s57.6 128 128 128h128c23.467 0 42.667 19.2 42.667 42.667s-19.2 42.667-42.667 42.667h-128c-117.76 0-213.333-95.573-213.333-213.333s95.573-213.333 213.333-213.333h128c23.467 0 42.667 19.2 42.667 42.667s-19.2 42.667-42.667 42.667z" />
<glyph unicode="&#xe93a;" glyph-name="arrow-drop-down" data-tags="arrow_drop_down" d="M348.703 462.393l128.553-128.553c19.358-19.358 50.628-19.358 69.984 0l128.553 128.553c31.27 31.27 8.934 84.876-35.241 84.876h-257.107c-44.175 0-66.015-53.606-34.745-84.876z" />
<glyph unicode="&#xe93b;" glyph-name="back" data-tags="back" d="M960 512h-714.88l312.32 312.32c24.96 24.96 24.96 65.92 0 90.88s-65.28 24.96-90.24 0l-421.76-421.76c-24.96-24.96-24.96-65.28 0-90.24l421.76-421.76c24.96-24.96 65.28-24.96 90.24 0s24.96 65.28 0 90.24l-312.32 312.32h714.88c35.2 0 64 28.8 64 64s-28.8 64-64 64z" />
<glyph unicode="&#xe93c;" glyph-name="back-long" data-tags="back-long" horiz-adv-x="1570" d="M98.088 515.142h1194.813l-339.586 329.299c-27.139 26.317-27.139 69.504 0 95.821s70.979 26.317 98.118 0l458.58-444.689c27.139-26.317 27.139-68.829 0-95.146l-458.58-444.689c-27.139-26.317-70.979-26.317-98.118 0s-27.139 68.829 0 95.146l339.586 329.299h-1194.813c-38.273 0-69.587 30.366-69.587 67.479s31.314 67.479 69.587 67.479z" />
<glyph unicode="&#xe93d;" glyph-name="list" data-tags="px (4)" d="M170.667 512c-35.413 0-64-28.587-64-64s28.587-64 64-64 64 28.587 64 64-28.587 64-64 64zM170.667 768c-35.413 0-64-28.587-64-64s28.587-64 64-64 64 28.587 64 64-28.587 64-64 64zM170.667 256c-35.413 0-64-29.013-64-64s29.013-64 64-64 64 29.013 64 64-28.587 64-64 64zM341.333 149.333h512c23.467 0 42.667 19.2 42.667 42.667s-19.2 42.667-42.667 42.667h-512c-23.467 0-42.667-19.2-42.667-42.667s19.2-42.667 42.667-42.667zM341.333 405.333h512c23.467 0 42.667 19.2 42.667 42.667s-19.2 42.667-42.667 42.667h-512c-23.467 0-42.667-19.2-42.667-42.667s19.2-42.667 42.667-42.667zM298.667 704c0-23.467 19.2-42.667 42.667-42.667h512c23.467 0 42.667 19.2 42.667 42.667s-19.2 42.667-42.667 42.667h-512c-23.467 0-42.667-19.2-42.667-42.667z" />
<glyph unicode="&#xe93e;" glyph-name="notification-outline" data-tags="px (1)" d="M823.040 222.293l-55.040 55.040v213.333c0 130.987-69.973 240.64-192 269.653v29.013c0 35.413-28.587 64-64 64s-64-28.587-64-64v-29.013c-122.453-29.013-192-138.24-192-269.653v-213.333l-55.040-55.040c-26.88-26.88-8.107-72.96 29.867-72.96h561.92c38.4 0 57.173 46.080 30.293 72.96zM682.667 234.667h-341.333v256c0 105.813 64.427 192 170.667 192s170.667-86.187 170.667-192v-256zM512 21.333c46.933 0 85.333 38.4 85.333 85.333h-170.667c0-46.933 37.973-85.333 85.333-85.333z" />
<glyph unicode="&#xe93f;" glyph-name="store" data-tags="outline-store-24px" horiz-adv-x="1152" d="M874.92 589l28.2-141h-654.24l28.2 141h597.84zM905 824h-658c-25.962 0-47-21.038-47-47s21.038-47 47-47h658c25.962 0 47 21.038 47 47s-21.038 47-47 47zM874.943 683h-597.873c-44.814 0-83.39-31.626-92.177-75.561l-31.889-159.439v-47c0-25.962 21.038-47 47-47v0 0-188c0-51.911 42.089-94 94-94h282c51.911 0 94 42.089 94 94v188h188v-235c0-25.962 21.038-47 47-47s47 21.038 47 47v235c25.962 0 47 21.038 47 47v47l-31.889 159.439c-8.787 43.935-47.363 75.561-92.177 75.561zM294 166v188h282v-188h-282z" />
<glyph unicode="&#xe940;" glyph-name="add-round" data-tags="round-add_circle-24px (1)" d="M512 874.667c-235.52 0-426.667-191.147-426.667-426.667s191.147-426.667 426.667-426.667 426.667 191.147 426.667 426.667-191.147 426.667-426.667 426.667zM682.667 405.333h-128v-128c0-23.467-19.2-42.667-42.667-42.667s-42.667 19.2-42.667 42.667v128h-128c-23.467 0-42.667 19.2-42.667 42.667s19.2 42.667 42.667 42.667h128v128c0 23.467 19.2 42.667 42.667 42.667s42.667-19.2 42.667-42.667v-128h128c23.467 0 42.667-19.2 42.667-42.667s-19.2-42.667-42.667-42.667z" />
<glyph unicode="&#xe941;" glyph-name="cancel" data-tags="cancel" d="M576.512 560.64l-64.512-64.512-64.512 64.512c-13.312 13.312-34.816 13.312-48.128 0s-13.312-34.816 0-48.128l64.512-64.512-64.512-64.512c-13.312-13.312-13.312-34.816 0-48.128s34.816-13.312 48.128 0l64.512 64.512 64.512-64.512c13.312-13.312 34.816-13.312 48.128 0s13.312 34.816 0 48.128l-64.512 64.512 64.512 64.512c13.312 13.312 13.312 34.816 0 48.128-13.312 12.971-35.157 12.971-48.128 0zM512 789.333c-188.757 0-341.333-152.576-341.333-341.333s152.576-341.333 341.333-341.333c188.757 0 341.333 152.576 341.333 341.333s-152.576 341.333-341.333 341.333zM512 174.933c-150.528 0-273.067 122.539-273.067 273.067s122.539 273.067 273.067 273.067c150.528 0 273.067-122.539 273.067-273.067s-122.539-273.067-273.067-273.067z" />
<glyph unicode="&#xe942;" glyph-name="handle" data-tags="handle" d="M213.333 618.667h597.333c23.564 0 42.667-19.103 42.667-42.667s-19.103-42.667-42.667-42.667h-597.333c-23.564 0-42.667 19.103-42.667 42.667s19.103 42.667 42.667 42.667zM213.333 362.667h597.333c23.564 0 42.667-19.103 42.667-42.667s-19.103-42.667-42.667-42.667h-597.333c-23.564 0-42.667 19.103-42.667 42.667s19.103 42.667 42.667 42.667z" />
<glyph unicode="&#xe943;" glyph-name="check-nopadding" data-tags="check-nopadding" d="M512-37.053c-267.887 0-485.053 217.165-485.053 485.053s217.165 485.053 485.053 485.053c267.887 0 485.053-217.165 485.053-485.053v0c-0.307-267.764-217.289-484.746-485.024-485.053h-0.029zM285.642 491.116c-23.688-0.163-42.829-19.404-42.829-43.115 0-11.808 4.747-22.508 12.436-30.294l154.836-154.836c7.801-7.792 18.573-12.611 30.471-12.611 0.031 0 0.062 0 0.093 0h-0.005c0.083-0.001 0.182-0.001 0.281-0.001 11.735 0 22.343 4.827 29.946 12.604l327.257 327.257c9.126 7.949 14.862 19.589 14.862 32.568 0 23.812-19.304 43.116-43.116 43.116-12.993 0-24.644-5.747-32.548-14.838l-0.045-0.052-296.421-296.421-124.605 123.958c-7.749 7.823-18.493 12.666-30.368 12.666-0.086 0-0.172 0-0.257-0.001h0.013z" />
<glyph unicode="&#xe944;" glyph-name="tour-guide" data-tags="tour-guide" d="M896 789.333h-597.333v85.333h-85.333v-853.333h85.333v341.333h597.333l-85.333 213.333zM640 576c0-47.128-38.205-85.333-85.333-85.333s-85.333 38.205-85.333 85.333c0 47.128 38.205 85.333 85.333 85.333v0c47.070-0.145 85.188-38.264 85.333-85.319v-0.014z" />
<glyph unicode="&#xe945;" glyph-name="outline-receipt-noborder" data-tags="outline-receipt" d="M503.467 494.933c-96.853 25.173-128 51.2-128 91.733 0 46.507 43.093 78.933 115.2 78.933 60.587 0 90.88-23.040 101.973-59.733 5.12-17.067 19.2-29.867 37.12-29.867h12.8c28.16 0 48.213 27.733 38.4 54.187-17.92 50.347-59.733 92.16-126.293 108.373v29.44c0 35.413-28.587 64-64 64s-64-28.587-64-64v-28.16c-82.773-17.92-149.333-71.68-149.333-154.027 0-98.56 81.493-147.627 200.533-176.213 106.667-25.6 128-63.147 128-102.827 0-29.44-20.907-76.373-115.2-76.373-70.4 0-106.667 25.173-120.747 61.013-6.4 16.64-20.907 28.587-38.4 28.587h-11.947c-28.587 0-48.64-29.013-37.973-55.467 24.32-59.307 81.067-94.293 145.067-107.947v-28.587c0-35.413 28.587-64 64-64s64 28.587 64 64v27.733c83.2 15.787 149.333 64 149.333 151.467 0 121.173-103.68 162.56-200.533 187.733z" />
<glyph unicode="&#xe946;" glyph-name="product" data-tags="product" d="M448.017 900.107c39.603 22.841 88.363 22.841 127.984-0.010v0l295.491-170.614c39.623-22.852 64.017-65.104 64.017-110.859v0-341.248c0-45.725-24.405-88.013-63.999-110.848v0l-295.527-170.634c-18.953-10.931-40.004-16.631-61.147-17.098-0.916-0.097-1.872-0.129-2.836-0.129l-2.842 0.129c-21.143 0.47-42.199 6.173-61.163 17.11v0l-295.487 170.654c-39.623 22.852-64.017 65.104-64.017 110.859v0 341.205c0 22.478 5.898 44.125 16.601 63.041 0.187 0.32 0.367 0.641 0.551 0.96l0.483 0.833c11.034 18.786 26.862 34.767 46.383 46.025v0zM173.781 594.036l0.043-316.617c0-15.262 8.121-29.328 21.338-36.951v0l274.128-158.303v341.248l-295.509 170.624zM850.133 593.993l-295.509-170.624v-341.205l274.236 158.274c11.715 6.756 19.446 18.648 21.019 31.909l0.297 5.030-0.043 316.617zM708.267 725.193l-295.637-170.496 99.371-57.375 295.467 170.612-99.2 57.259zM533.35 826.186c-13.218 7.623-29.482 7.623-42.683 0.010v0l-274.177-158.262 110.805-63.957 295.637 170.496zM226.345 442.527c10.978 18.928 34.274 26.264 53.866 17.75l4.448-2.248 128-74.24c20.384-11.823 27.324-37.931 15.501-58.315-10.978-18.928-34.274-26.264-53.866-17.75l-4.448 2.248-128 74.24c-20.384 11.823-27.324 37.931-15.501 58.315z" />
<glyph unicode="&#xe947;" glyph-name="tasviye-shaparak-nopadding" data-tags="tasviye-shaparak-nopadding" d="M512-37.053c-267.887 0-485.053 217.165-485.053 485.053s217.165 485.053 485.053 485.053c267.887 0 485.053-217.165 485.053-485.053v0c-0.307-267.764-217.289-484.746-485.024-485.053h-0.029zM386.425 338.324c-12.15-0.021-22.849-6.214-29.131-15.61l-0.080-0.127c-3.619-5.206-5.782-11.661-5.782-18.621 0-4.581 0.937-8.944 2.63-12.906l-0.081 0.215c22.688-48.346 67.63-82.952 121.262-90.816l0.864-0.104v-24.36c0-29.765 24.129-53.895 53.895-53.895v0h0.431c29.765 0 53.895 24.129 53.895 53.895v0 23.552c80.034 15.144 126.275 61.871 127.030 128.269 0 101.322-85.747 137.054-169.607 158.666-77.986 20.049-108.382 41.822-108.382 77.501 0 40.421 38.211 66.56 97.388 66.56 46.888 0 75.83-17.031 86.232-50.715 3.52-14.335 16.118-24.855 31.224-25.168l0.035-0.001h10.779c0.002 0 0.005 0 0.008 0 11.828 0 22.288 5.853 28.644 14.82l0.073 0.109c3.88 5.388 6.206 12.12 6.206 19.396 0 4.143-0.754 8.109-2.132 11.77l0.076-0.23c-17.589 46.584-57.188 81.19-105.766 91.454l-0.946 0.167v25.331c0 29.765-24.129 53.895-53.895 53.895v0h-0.755c-29.765 0-53.895-24.129-53.895-53.895v0-24.36c-67.956-7.408-121.101-61.942-126.3-129.891l-0.030-0.48c0-73.566 53.895-120.886 169.661-148.911 95.501-22.744 108.382-56.643 108.382-86.878 0-31.205-25.6-64.674-97.388-64.674-53.895 0-88.872 17.839-101.861 51.523-4.838 13.934-17.636 23.853-32.817 24.359l-0.059 0.002z" />
<glyph unicode="&#xe948;" glyph-name="receipt" data-tags="receipt" d="M768 234.667h-512v85.333h512zM768 405.333h-512v85.333h512zM768 576h-512v85.333h512zM128 21.333l64 64 64-64 64 64 64-64 64 64 64-64 64 64 64-64 64 64 64-64 64 64 64-64v853.333l-64-64-64 64-64-64-64 64-64-64-64 64-64-64-64 64-64-64-64 64-64-64-64 64z" />
<glyph unicode="&#xe949;" glyph-name="coupon_border" data-tags="coupon_border" d="M938.667 533.333v170.667c0 47.128-38.205 85.333-85.333 85.333v0h-682.667c-46.898-0.024-84.908-38.048-84.908-84.949 0-0.135 0-0.27 0.001-0.405v0.021-170.667c47.037-0.121 85.12-38.28 85.12-85.333 0-47.128-38.205-85.334-85.334-85.334-0.075 0-0.15 0-0.225 0h0.012v-170.667c0.145-47.070 38.264-85.188 85.319-85.333h682.681c47.070 0.145 85.188 38.264 85.333 85.319v170.681c-47.128 0-85.333 38.205-85.333 85.333s38.205 85.333 85.333 85.333v0zM853.333 595.627c-51.365-29.986-85.329-84.84-85.329-147.627s33.964-117.64 84.522-147.191l0.807-0.436v-108.373h-682.667v108.373c51.245 30.11 85.146 84.888 85.333 147.6v0.027c0 0.080 0 0.174 0 0.269 0 62.608-33.78 117.327-84.108 146.924l-0.799 0.434-0.427 108.373h682.667zM469.333 320h85.333v-85.333h-85.333zM469.333 490.667h85.333v-85.333h-85.333zM469.333 661.333h85.333v-85.333h-85.333z" />
<glyph unicode="&#xe94a;" glyph-name="money-24px" data-tags="money-24px" d="M197.547 606.037h89.856v-316.075h-89.856zM512 606.037h-134.741c-0.709 0.042-1.539 0.066-2.373 0.066-22.476 0-40.893-17.38-42.546-39.433l-0.009-0.142v-237.056c1.661-22.196 20.078-39.575 42.555-39.575 0.835 0 1.664 0.024 2.487 0.071l-0.114-0.005h134.741c0.709-0.042 1.539-0.066 2.373-0.066 22.476 0 40.893 17.38 42.546 39.433l0.009 0.142v237.056c-1.661 22.196-20.078 39.575-42.555 39.575-0.835 0-1.664-0.024-2.487-0.071l0.114 0.005zM467.072 368.981h-44.928v157.867h44.928zM781.568 606.037h-134.784c-0.709 0.042-1.539 0.066-2.373 0.066-22.476 0-40.893-17.38-42.546-39.433l-0.009-0.142v-237.056c1.661-22.196 20.078-39.575 42.555-39.575 0.835 0 1.664 0.024 2.487 0.071l-0.114-0.005h134.784c0.709-0.042 1.539-0.066 2.373-0.066 22.476 0 40.893 17.38 42.546 39.433l0.009 0.142v237.056c-1.661 22.196-20.078 39.575-42.555 39.575-0.835 0-1.664-0.024-2.487-0.071l0.114 0.005zM736.64 368.981h-44.928v157.867h44.928zM79.019 801.963v-707.925h866.133v707.925zM165.632 182.528v530.944h692.779v-530.944z" />
<glyph unicode="&#xe94b;" glyph-name="filter" data-tags="filter" d="M298.667 704h426.667l-213.76-268.8zM181.333 720.64c86.187-110.507 245.333-315.307 245.333-315.307v-256c0-23.564 19.103-42.667 42.667-42.667v0h85.333c23.564 0 42.667 19.103 42.667 42.667v0 256s158.72 204.8 244.907 315.307c5.525 7.121 8.858 16.185 8.858 26.027 0 23.528-19.044 42.608-42.559 42.667h-593.499c-23.52-0.058-42.564-19.138-42.564-42.667 0-9.842 3.332-18.905 8.93-26.124l-0.073 0.097z" />
<glyph unicode="&#xe94c;" glyph-name="html" data-tags="html" d="M784.725 83.413h-554.667c-25.453 0.048-46.074 20.669-46.123 46.118v647.301c0 0.013 0 0.028 0 0.043 0 25.499 20.634 46.178 46.116 46.25h392.924l208.256-207.36v-486.4c-0.169-25.415-20.811-45.953-46.25-45.953-0.090 0-0.181 0-0.271 0.001h0.014zM519.125 507.477l-92.757-202.923 50.091-22.912 92.971 202.923-50.304 22.912zM639.403 492.032v0l-32.896-44.032 71.083-53.376-71.083-53.333 32.896-44.075 110.507 82.773v29.269l-110.507 82.773zM355.243 492.032v0l-110.336-82.773v-29.269l110.336-82.773 33.024 44.075-71.253 53.333 71.253 53.376-33.024 44.032zM580.224 780.16v0-161.451c0.024-25.557 20.736-46.269 46.291-46.293h161.069l-207.36 207.744z" />
<glyph unicode="&#xe94d;" glyph-name="pdf" data-tags="pdf" d="M784.555 83.413h-554.667c-25.321 0.169-45.782 20.735-45.782 46.079 0 0.075 0 0.151 0.001 0.226v-0.012 647.125c0 0.064 0 0.139 0 0.214 0 25.344 20.461 45.91 45.766 46.079h392.933l208.427-207.531v-485.888c-0.072-25.583-20.828-46.294-46.421-46.294-0.090 0-0.18 0-0.27 0.001h0.014zM663.211 481.152c-10.755-0.26-19.375-9.041-19.375-19.835 0-0.663 0.033-1.318 0.096-1.965l-0.007 0.082v-155.733c0-13.355 7.125-21.675 18.603-21.675s18.432 8.277 18.432 21.675v42.667h38.4c9.815 0.015 17.766 7.975 17.766 17.792 0 0.511-0.022 1.016-0.064 1.516l0.004-0.065c0.041 0.448 0.064 0.97 0.064 1.496 0 9.638-7.813 17.451-17.451 17.451-0.113 0-0.225-0.001-0.337-0.003h-38.383v57.984h45.781c9.161 0.336 16.461 7.843 16.461 17.056 0 0.711-0.043 1.411-0.128 2.099l0.008-0.082c0.070 0.583 0.109 1.259 0.109 1.944 0 9.269-7.262 16.842-16.406 17.339l-0.044 0.002zM298.667 481.152c-0.302 0.017-0.655 0.027-1.011 0.027-10.651 0-19.285-8.634-19.285-19.285 0-0.867 0.057-1.72 0.168-2.557l-0.011 0.098v-155.733c-0.106-0.758-0.167-1.633-0.167-2.523 0-10.58 8.577-19.157 19.157-19.157 0.164 0 0.327 0.002 0.49 0.006h-0.024c0.162-0.005 0.353-0.008 0.545-0.008 10.604 0 19.2 8.596 19.2 19.2 0 0.875-0.059 1.737-0.172 2.581l0.011-0.099v45.269h28.928c0.488-0.014 1.062-0.021 1.639-0.021 34.899 0 63.189 28.291 63.189 63.189 0 0.968-0.022 1.931-0.065 2.888l0.005-0.136c0.040 0.838 0.062 1.82 0.062 2.808 0 35.111-28.463 63.573-63.573 63.573-1.102 0-2.198-0.028-3.287-0.083l0.153 0.006zM466.133 481.152c-0.28 0.014-0.608 0.022-0.937 0.022-11.287 0-20.437-9.15-20.437-20.437 0-0.458 0.015-0.912 0.045-1.363l-0.003 0.061v-155.733c-0.012-0.264-0.019-0.573-0.019-0.885 0-11.146 9.035-20.181 20.181-20.181 0.608 0 1.209 0.027 1.803 0.079l-0.077-0.005h48.896c1.722-0.117 3.732-0.184 5.758-0.184 49.697 0 89.984 40.287 89.984 89.984 0 2.377-0.092 4.733-0.273 7.064l0.019-0.309c0.067 1.417 0.106 3.079 0.106 4.749 0 26.59-9.73 50.908-25.823 69.587l0.117-0.139c-17.512 17.187-41.532 27.795-68.030 27.795-1.584 0-3.159-0.038-4.724-0.113l0.221 0.008zM580.267 780.16v0-161.451c0.024-25.557 20.736-46.269 46.291-46.293h161.069l-207.36 207.744zM514.517 321.237h-28.032v121.557h25.301c35.115 0 55.253-22.571 55.253-61.952 0-37.291-19.627-59.605-52.523-59.605zM344.149 385.621h-26.539v58.709h26.539c14.813-0.105 26.781-12.137 26.781-26.965 0-0.872-0.041-1.733-0.122-2.584l0.008 0.108c0.054-0.64 0.084-1.384 0.084-2.136 0-14.851-11.931-26.916-26.73-27.133h-0.020z" />
<glyph unicode="&#xe94e;" glyph-name="export" data-tags="export" d="M896 149.333v597.333c0 47.128-38.205 85.333-85.333 85.333v0h-170.667v-85.333h170.667v-597.333h-597.333v597.333h170.667v85.333h-170.667c-47.128 0-85.333-38.205-85.333-85.333v0-597.333c0.145-47.070 38.264-85.188 85.319-85.333h597.347c47.070 0.145 85.188 38.264 85.333 85.319v0.014zM665.173 515.84l60.16 60.16-213.333 213.333-213.333-213.333 60.16-60.16 110.507 110.080v-412.587h85.333v412.587z" />
<glyph unicode="&#xe94f;" glyph-name="arrow-down-sort" data-tags="arrow-down-sort" d="M535.424 280.192c-5.070-8.049-13.909-13.318-23.979-13.318s-18.909 5.27-23.91 13.201l-0.069 0.117-184.533 295.296c-2.713 4.26-4.324 9.451-4.324 15.019 0 15.599 12.646 28.245 28.245 28.245 0.020 0 0.040 0 0.060 0h369.064c0.042 0 0.093 0 0.143 0 15.599 0 28.245-12.646 28.245-28.245 0-5.568-1.611-10.759-4.392-15.134l0.068 0.115z" />
<glyph unicode="&#xe950;" glyph-name="arrow-up-sort" data-tags="arrow-up-sort" d="M535.424 605.397c-5.073 8.029-13.902 13.284-23.957 13.284s-18.884-5.255-23.889-13.168l-0.069-0.116-184.619-295.296c-2.696-4.25-4.297-9.426-4.297-14.976 0-15.599 12.646-28.245 28.245-28.245 0.026 0 0.051 0 0.077 0h369.063c0.017 0 0.037 0 0.057 0 15.599 0 28.245 12.646 28.245 28.245 0 5.568-1.611 10.759-4.392 15.133l0.068-0.115z" />
<glyph unicode="&#xe951;" glyph-name="all-dashboard" data-tags="all-dashboard" d="M128 405.333h341.333v426.667h-341.333zM128 64h341.333v256h-341.333zM554.667 64h341.333v426.667h-341.333zM554.667 832v-256h341.333v256z" />
<glyph unicode="&#xe952;" glyph-name="account_tree" data-tags="account_tree" d="M938.667 490.667v341.333h-298.667v-128h-256v128h-298.667v-341.333h298.667v128h85.333v-426.667h170.667v-128h298.667v341.333h-298.667v-128h-85.333v341.333h85.333v-128h298.667zM298.667 576h-128v170.667h128v-170.667zM725.333 320h128v-170.667h-128v170.667zM725.333 746.667h128v-170.667h-128v170.667z" />
<glyph unicode="&#xe953;" glyph-name="logout" data-tags="logout" d="M725.333 661.333l-60.16-60.16 110.080-110.507h-433.92v-85.333h433.92l-110.080-110.080 60.16-60.587 213.333 213.333-213.333 213.333zM170.667 746.667h341.333v85.333h-341.333c-46.933 0-85.333-38.4-85.333-85.333v-597.333c0-46.933 38.4-85.333 85.333-85.333h341.333v85.333h-341.333v597.333z" />
<glyph unicode="&#xe954;" glyph-name="setting-line" data-tags="setting-line" d="M829.005 406.187c1.707 13.653 2.987 27.307 2.987 41.813s-1.28 28.16-2.987 41.813l90.027 70.4c8.107 6.4 10.24 17.92 5.12 27.307l-85.333 147.627c-3.84 6.827-11.093 10.667-18.773 10.667-2.56 0-5.12-0.427-7.253-1.28l-106.24-42.667c-22.187 17.067-46.080 31.147-72.107 41.813l-16.213 113.067c-1.28 10.24-10.24 17.92-20.907 17.92h-170.665c-10.667 0-19.627-7.68-20.907-17.92l-16.213-113.067c-26.027-10.667-49.92-25.173-72.107-41.813l-106.24 42.667c-2.56 0.853-5.12 1.28-7.68 1.28-7.253 0-14.507-3.84-18.347-10.667l-85.333-147.627c-5.547-9.387-2.987-20.907 5.12-27.307l90.027-70.4c-1.707-13.653-2.987-27.733-2.987-41.813s1.28-28.16 2.987-41.813l-90.027-70.4c-8.107-6.4-10.24-17.92-5.12-27.307l85.333-147.627c3.84-6.827 11.093-10.667 18.773-10.667 2.56 0 5.12 0.427 7.253 1.28l106.24 42.667c22.187-17.067 46.080-31.147 72.107-41.813l16.213-113.067c1.28-10.24 10.24-17.92 20.907-17.92h170.665c10.667 0 19.627 7.68 20.907 17.92l16.213 113.067c26.027 10.667 49.92 25.173 72.107 41.813l106.24-42.667c2.56-0.853 5.12-1.28 7.68-1.28 7.253 0 14.507 3.84 18.347 10.667l85.333 147.627c5.12 9.387 2.987 20.907-5.12 27.307l-90.027 70.4zM744.525 479.147c1.707-13.227 2.133-22.187 2.133-31.147s-0.853-18.347-2.133-31.147l-5.973-48.213 37.973-29.867 46.080-35.84-29.867-51.627-54.187 21.76-44.373 17.92-38.4-29.013c-18.347-13.653-35.84-23.893-53.333-31.147l-45.227-18.347-6.827-48.213-8.533-57.6h-59.733l-8.107 57.6-6.827 48.213-45.225 18.347c-18.347 7.68-35.413 17.493-52.48 30.293l-38.827 29.867-45.227-18.347-54.187-21.76-29.867 51.627 46.080 35.84 37.973 29.867-5.973 48.213c-1.28 13.227-2.133 23.040-2.133 31.573s0.853 18.347 2.133 31.147l5.973 48.213-37.973 29.867-46.080 35.84 29.867 51.627 54.187-21.76 44.373-17.92 38.4 29.013c18.347 13.653 35.84 23.893 53.333 31.147l45.225 18.347 6.827 48.213 8.533 57.6h59.307l8.107-57.6 6.827-48.213 45.227-18.347c18.347-7.68 35.413-17.493 52.48-30.293l38.827-29.867 45.227 18.347 54.187 21.76 29.867-51.627-45.653-36.267-37.973-29.867 5.973-48.213zM511.991 618.667c-94.292 0-170.665-76.373-170.665-170.667s76.373-170.667 170.665-170.667c94.293 0 170.667 76.373 170.667 170.667s-76.373 170.667-170.667 170.667zM511.991 362.667c-46.933 0-85.332 38.4-85.332 85.333s38.398 85.333 85.332 85.333c46.933 0 85.333-38.4 85.333-85.333s-38.4-85.333-85.333-85.333z" />
<glyph unicode="&#xe955;" glyph-name="phonelink" data-tags="phonelink" d="M170.667 704h768v85.333h-768c-46.933 0-85.333-38.4-85.333-85.333v-469.333h-85.333v-128h597.333v128h-426.667v469.333zM981.333 618.667h-256c-23.467 0-42.667-19.2-42.667-42.667v-426.667c0-23.467 19.2-42.667 42.667-42.667h256c23.467 0 42.667 19.2 42.667 42.667v426.667c0 23.467-19.2 42.667-42.667 42.667zM938.667 234.667h-170.667v298.667h170.667v-298.667z" />
<glyph unicode="&#xe956;" glyph-name="info-line" data-tags="info-line" d="M469.333 661.333h85.333v-85.333h-85.333v85.333zM469.333 490.667h85.333v-256h-85.333v256zM512 874.667c-235.52 0-426.667-191.147-426.667-426.667s191.147-426.667 426.667-426.667c235.52 0 426.667 191.147 426.667 426.667s-191.147 426.667-426.667 426.667zM512 106.667c-188.16 0-341.333 153.173-341.333 341.333s153.173 341.333 341.333 341.333c188.16 0 341.333-153.173 341.333-341.333s-153.173-341.333-341.333-341.333z" />
<glyph unicode="&#xe957;" glyph-name="chevron-left-Pagination" data-tags="chevron-left-Pagination" d="M657.493 252.587l-195.413 195.413 195.413 195.84-60.16 60.16-256-256 256-256 60.16 60.587z" />
<glyph unicode="&#xe958;" glyph-name="Circle-arrow-badge" data-tags="Circle-arrow-badge" d="M793.186 474.603h-33.463c-13.188 127.75-120.405 229.397-247.654 229.397-74.492 0-141.658-34.635-187.574-89.098-9.281-10.792-8.060-24.094 1.71-31.121 9.525-7.027 21.004-4.768 29.064 4.518 38.101 44.674 94.277 73.035 156.8 73.035 106.244 0 192.947-81.067 205.649-186.731h-36.395c-17.34 0-21.734-12.045-12.454-25.852l54.707-80.060c7.817-11.546 19.541-11.797 27.601 0l54.464 79.812c9.771 14.054 5.129 26.099-12.454 26.099zM230.707 421.146h33.705c13.189-127.748 120.165-229.146 247.657-229.146 74.492 0 141.901 34.884 187.819 89.097 9.037 10.795 7.817 24.346-1.711 31.373-9.523 7.027-21.248 4.518-29.065-4.766-37.858-44.928-94.029-73.037-157.043-73.037-106.487 0-193.192 80.815-205.892 186.479h36.635c17.341 0 21.737 12.297 12.456 25.852l-54.709 80.060c-7.816 11.547-19.539 11.798-27.599 0l-54.709-79.808c-9.525-13.807-5.129-26.103 12.456-26.103z" />
<glyph unicode="&#xe959;" glyph-name="Difference-badge" data-tags="Difference-badge" d="M410.189 722.781c0 24.135-20.006 30.991-40.286 15.907l-101.673-73.776c-16.169-12.067-16.443-31.266 0-43.333l101.673-73.501c20.554-15.086 40.286-7.954 40.286 15.633v44.704h194.304c42.479 0 69.884-25.506 69.884-62.531 0-37.024-27.132-63.080-69.884-63.080h-187.452c-84.682 0-144.7-55.125-144.7-132.74 0-80.909 59.196-132.194 144.7-132.194h196.771v-44.979c0-23.586 19.733-30.716 40.286-15.633l101.675 73.502c16.439 12.066 16.166 31.266 0 43.332l-101.675 73.775c-20.279 15.087-40.286 8.23-40.286-15.629v-44.706h-201.429c-42.479 0-69.884 25.506-69.884 62.532 0 37.022 27.131 63.078 69.884 63.078h187.452c84.685 0 144.7 55.125 144.7 132.742 0 80.907-59.196 132.193-144.7 132.193h-189.644v44.704z" />
<glyph unicode="&#xe95a;" glyph-name="in-pay-badge" data-tags="in-pay-badge" d="M193.385 519.138h43.481c17.139-158.421 156.469-284.471 321.824-284.471 96.802 0 184.081 42.953 243.75 110.49 12.058 13.385 10.47 29.879-2.223 38.592-12.378 8.717-27.294 5.914-37.769-5.602-49.51-55.398-122.509-90.569-203.759-90.569-138.061 0-250.731 100.527-267.235 231.561h47.29c22.534 0 28.247 14.938 16.186 32.056l-71.093 99.284c-10.156 14.317-25.391 14.628-35.864 0l-70.776-98.973c-12.695-17.429-6.665-32.367 16.186-32.367z" />
<glyph unicode="&#xe95b;" glyph-name="multiplied-by-badge" data-tags="multiplied-by-badge" d="M652.143 648.869c16.175 16.175 43.678 17.029 60.42 0.083 17.438-16.741 16.614-44.721 0.009-60.953l-139.891-139.863 139.895-140.143c16.725-16.35 17.271-43.964 0.073-60.864-16.738-17.033-44.305-16.201-60.506 0l-140.241 140.215-139.968-140.215c-16.232-16.23-44.156-17.033-60.882 0.085-16.803 16.892-16.246 44.386 0.083 60.71l140.236 140.211-140.236 139.936c-16.207 16.204-17.035 44.063-0.001 60.797 16.736 17.030 44.606 16.19 60.812-0.012l139.957-140.203 140.241 140.214z" />
<glyph unicode="&#xe95c;" glyph-name="sent-to-shapparak-badge" data-tags="sent-to-shapparak-badge" d="M385.323 738.298c23.025 15.822 45.739 8.63 45.739-16.685v-46.892h215.317c97.079 0 164.288-53.795 164.288-138.66 0-81.414-68.143-139.236-164.288-139.236h-212.826c-48.541 0-79.345-27.328-79.345-66.167 0-38.835 31.115-65.587 79.345-65.587h228.693v-73.071h-223.407c-97.078 0-164.287 53.794-164.287 138.658 0 81.417 68.142 139.238 164.287 139.238h212.83c48.538 0 79.343 27.328 79.343 66.165s-31.117 65.59-79.343 65.59h-220.608v-46.892c0-24.742-22.403-32.221-45.739-16.397l-115.437 77.097c-18.669 12.658-18.358 32.795 0 45.453l115.437 77.385z" />
<glyph unicode="&#xe95d;" glyph-name="Tick-badge" data-tags="Tick-badge" d="M802.116 637.693c-5.184 1.64-10.615 2.403-16.017 2.298-7.386 0.133-14.831-1.324-21.641-4.396l-0.73-0.331-0.708-0.384c-5.794-3.16-11.063-7.337-15.381-12.453l-309.696-266.595-161.579 146.266c-4.499 5.175-10.087 9.165-16.143 11.904-6.602 2.991-13.788 4.523-20.966 4.617-5.642 0.145-11.318-0.636-16.729-2.351-5.479-1.732-10.714-4.433-15.313-8.102l-0.14-0.115c-4.606-3.738-8.524-8.474-11.227-14.054-2.672-5.521-4.033-11.627-3.827-17.89 0.116-5.726 1.469-11.277 3.874-16.363l0.052-0.107c2.624-5.47 6.264-10.295 10.596-14.353l190.216-171.669c5.14-5.513 11.423-9.771 18.237-12.71 7.219-3.11 15.037-4.74 22.875-4.89-0.013 0-0.030 0-0.043 0l0.469 21.329-0.388-21.329c-0.013 0-0.026 0-0.038 0 8.137-0.171 16.329 1.382 23.825 4.672 6.775 2.974 12.996 7.377 17.937 13.129l339.925 294.392 1.225 1.541c3.149 3.951 5.798 8.285 7.834 12.931l0.034 0.081c2.044 4.713 3.196 9.789 3.319 15.002 0.243 6.129-1.024 12.125-3.563 17.574-2.577 5.531-6.349 10.256-10.812 14.020l-0.38 0.308c-4.531 3.646-9.698 6.32-15.1 8.029z" />
<glyph unicode="&#xe95e;" glyph-name="chevron-right-Pagination" data-tags="chevron-right-Pagination" d="M366.507 643.413l195.413-195.413-195.413-195.84 60.16-60.16 256 256-256 256-60.16-60.587z" />
</font>
</defs>
</svg>
